{"title":"[MARATHI] Duniyadari (2013) DVDScr 480p XviD AC3 [TMB]","uid":8938872,"size":791751788,"categoryP":"video","categoryS":"movies","magnet":"?xt=urn:btih:670f8fd0fb6556e75f02943e535210b71b0f87fa&amp;dn=%5BMARATHI%5D+Duniyadari+%282013%29+DVDScr+480p+XviD+AC3+%5BTMB%5D&amp;tr=udp%3A%2F%2Ftracker.openbittorrent.com%3A80&amp;tr=udp%3A%2F%2Fopen.demonii.com%3A1337&amp;tr=udp%3A%2F%2Ftracker.coppersurfer.tk%3A6969&amp;tr=udp%3A%2F%2Fexodus.desync.com%3A6969","seeders":9,"leechers":0,"uploader":"SJonam","files":1,"time":1379627822,"description":" &lt;a href=&quot;http://i26.photobucket.com/albums/c119/manojb/kxr2.jpg&quot; rel=&quot;nofollow&quot; target=&quot;_NEW&quot;&gt;http://i26.photobucket.com/albums/c119/manojb/kxr2.jpg&lt;/a&gt; &lt;a href=&quot;\nhttp://i26.photobucket.com/albums/c119/manojb/bgr.png&quot; rel=&quot;nofollow&quot; target=&quot;_NEW&quot;&gt;\nhttp://i26.photobucket.com/albums/c119/manojb/bgr.png&lt;/a&gt; &lt;a href=&quot;\nhttp://i26.photobucket.com/albums/c119/manojb/xn26.png&quot; rel=&quot;nofollow&quot; target=&quot;_NEW&quot;&gt;\nhttp://i26.photobucket.com/albums/c119/manojb/xn26.png&lt;/a&gt; &lt;a href=&quot;\nhttp://i26.photobucket.com/albums/c119/manojb/i1v.png&quot; rel=&quot;nofollow&quot; target=&quot;_NEW&quot;&gt;\nhttp://i26.photobucket.com/albums/c119/manojb/i1v.png&lt;/a&gt;\n\nMedia Info - \nVideo\nID                             : 1\nFormat                         : MPEG-4 Visual\nFormat profile                 : Advanced Simple@L5\nFormat settings, BVOP          : Yes\nFormat settings, QPel          : No\nFormat settings, GMC           : No warppoints\nFormat settings, Matrix        : Default (H.263)\nCodec ID                       : V_MPEG4/ISO/ASP\nCodec ID/Info                  : Advanced Simple Profile\nDuration                       : 2h 21mn\nBit rate                       : 601 Kbps\nWidth                          : 480 pixels\nHeight                         : 224 pixels\nDisplay aspect ratio           : 2.143\nFrame rate mode                : Constant\nFrame rate                     : 25.000 fps\nColor space                    : YUV\nChroma subsampling             : 4:2:0\nBit depth                      : 8 bits\nScan type                      : Progressive\nCompression mode               : Lossy\nBits/(Pixel*Frame)             : 0.224\nStream size                    : 610 MiB (81%)\nWriting library                : XviD 1.2.1 (UTC 2008-12-04)\nLanguage                       : English\nDefault                        : Yes\nForced                         : No\n\nAudio\nID                             : 2\nFormat                         : AC-3\nFormat/Info                    : Audio Coding 3\nMode extension                 : CM (complete main)\nFormat settings, Endianness    : Big\nCodec ID                       : A_AC3\nDuration                       : 2h 21mn\nBit rate mode                  : Constant\nBit rate                       : 128 Kbps\nChannel count                  : 2 channels\nChannel positions              : Front: L R\nSampling rate                  : 48.0 KHz\nBit depth                      : 16 bits\nCompression mode               : Lossy\nStream size                    : 130 MiB (17%)\nDefault                        : Yes\nForced                         : No\n\nSample - http://www.multiupload.nl/L2ISAONKQ9\n\nRipper : Devang ;)\n\nSeeding 24x7... Extreme Seeding...\n\n\nEnjoy!\n","torrent":{"xt":"urn:btih:670f8fd0fb6556e75f02943e535210b71b0f87fa","amp;dn":"%5BMARATHI%5D+Duniyadari+%282013%29+DVDScr+480p+XviD+AC3+%5BTMB%5D","amp;tr":["udp%3A%2F%2Ftracker.openbittorrent.com%3A80","udp%3A%2F%2Fopen.demonii.com%3A1337","udp%3A%2F%2Ftracker.coppersurfer.tk%3A6969","udp%3A%2F%2Fexodus.desync.com%3A6969"],"infoHash":"670f8fd0fb6556e75f02943e535210b71b0f87fa","infoHashBuffer":{"type":"Buffer","data":[103,15,143,208,251,101,86,231,95,2,148,62,83,82,16,183,27,15,135,250]},"announce":[],"urlList":[]}}